<?xml version="1.0" standalone="no"?>
<!DOCTYPE svg PUBLIC "-//W3C//DTD SVG 20010904//EN"
 "http://www.w3.org/TR/2001/REC-SVG-20010904/DTD/svg10.dtd">
<svg version="1.0" xmlns="http://www.w3.org/2000/svg"
 width="1200.000000pt" height="1373.000000pt" viewBox="0 0 1200.000000 1373.000000"
 preserveAspectRatio="xMidYMid meet">

<g transform="translate(0.000000,1373.000000) scale(0.100000,-0.100000)"
fill="#000000" stroke="none">
<path d="M8320 13588 c-513 -295 -1044 -509 -1501 -605 -130 -27 -143 -28
-434 -27 -267 0 -332 4 -585 32 -553 61 -801 54 -1255 -34 -213 -41 -631 -156
-815 -224 -521 -193 -942 -525 -1340 -1055 -54 -71 -199 -283 -322 -470 -149
-225 -249 -366 -296 -416 -41 -43 -134 -122 -219 -185 -724 -531 -1558 -1165
-1530 -1164 9 1 1072 340 1095 350 12 5 22 7 22 4 0 -3 -49 -58 -109 -122
-179 -191 -464 -540 -735 -900 -89 -118 -110 -141 -122 -131 -31 25 -11 -10
53 -95 145 -192 354 -387 510 -476 213 -123 402 -133 599 -32 l41 21 94 -48
c177 -91 363 -157 544 -192 158 -30 156 -32 82 58 -108 131 -314 420 -305 427
1 2 27 19 57 39 l54 36 81 -29 c44 -16 141 -52 215 -79 74 -28 136 -49 137
-48 1 1 -9 90 -22 197 -13 107 -23 198 -21 201 1 4 49 -12 107 -33 136 -52
292 -109 305 -111 6 -1 9 3 9 8 -1 6 -12 80 -23 165 -12 85 -24 163 -27 173
-4 13 12 25 78 57 l83 40 38 148 c21 81 66 255 102 387 128 483 272 1026 288
1090 9 39 23 49 750 545 408 278 815 556 905 618 91 61 166 112 167 112 4 0
-114 -298 -169 -426 -60 -138 -165 -319 -257 -444 -83 -114 -313 -340 -424
-418 -134 -95 -232 -144 -446 -226 -213 -82 -201 -73 -314 -221 -93 -122 -144
-245 -185 -445 -22 -112 -55 -360 -66 -494 -7 -84 -6 -88 12 -82 90 28 277 42
374 27 375 -57 726 -344 897 -732 95 -217 128 -445 84 -589 -19 -62 -31 -80
-94 -147 -40 -42 -121 -118 -181 -169 l-109 -94 -158 0 -159 0 0 -126 c0 -109
-2 -129 -17 -140 -13 -10 -61 -13 -180 -14 l-163 0 0 -124 0 -124 -39 -31
c-31 -25 -48 -31 -88 -31 -127 0 -364 88 -561 207 -41 25 -76 43 -78 40 -9 -8
18 -152 43 -232 29 -92 92 -245 134 -325 27 -52 36 -59 147 -122 279 -158 520
-253 750 -293 111 -19 278 -19 362 1 134 31 341 145 785 432 744 481 884 570
1165 734 198 116 500 275 645 341 80 36 180 70 300 102 99 26 270 71 380 100
175 47 382 101 950 251 77 20 221 58 320 84 99 26 270 71 380 100 110 29 306
81 435 115 129 34 276 73 326 85 l91 23 71 186 c39 102 119 310 177 461 59
151 117 303 130 338 l24 62 -27 -6 c-28 -7 -401 -105 -832 -219 -135 -35 -303
-80 -375 -99 -263 -68 -873 -229 -978 -257 -59 -16 -110 -29 -112 -29 -3 0 -5
210 -5 468 l0 467 93 24 c50 13 173 45 272 71 99 27 252 67 340 90 88 23 216
56 285 75 69 18 195 52 280 74 85 22 274 72 420 111 146 38 369 97 495 130
127 33 302 79 389 103 l160 44 88 229 c48 126 111 288 138 359 113 289 172
447 168 450 -2 2 -147 -34 -323 -81 -176 -46 -406 -107 -512 -134 -105 -27
-267 -70 -360 -95 -92 -24 -220 -58 -283 -75 -192 -50 -362 -95 -640 -168
-146 -39 -395 -105 -555 -146 -159 -42 -312 -83 -340 -90 -27 -8 -65 -17 -83
-21 l-32 -7 2 468 3 468 110 28 c99 26 398 104 675 178 58 15 186 49 285 75
99 26 270 71 380 100 110 29 324 86 475 125 151 40 313 83 360 95 47 13 166
44 265 70 99 26 261 69 360 96 231 61 574 150 602 156 17 4 29 22 49 77 15 39
55 143 89 231 192 494 255 663 255 685 0 51 -6 52 -180 6 -91 -24 -255 -67
-365 -96 -110 -29 -281 -74 -380 -100 -99 -27 -304 -81 -455 -120 -151 -40
-356 -94 -455 -120 -99 -27 -252 -67 -340 -90 -88 -22 -216 -56 -285 -75 -69
-18 -186 -49 -260 -69 -74 -19 -265 -69 -425 -112 -521 -138 -575 -152 -575
-147 0 2 13 23 29 46 170 249 268 603 240 867 -5 52 -13 97 -17 101 -4 3 -77
-34 -162 -83z m-1560 -2816 c0 -10 -30 -95 -66 -188 -36 -93 -86 -223 -111
-290 l-45 -120 -131 -33 c-73 -19 -229 -60 -347 -91 -295 -79 -274 -75 -265
-53 4 10 18 46 31 81 13 34 43 113 67 175 24 61 65 167 91 233 l47 121 72 18
c68 16 436 114 557 147 78 22 100 22 100 0z m720 -613 c0 -17 -213 -586 -223
-595 -1 -1 -99 -28 -217 -59 -118 -31 -282 -75 -363 -97 -81 -22 -151 -38
-156 -36 -11 4 224 609 240 618 15 8 108 34 384 106 99 25 209 55 245 64 85
24 90 24 90 -1z m-980 -211 c0 -19 -212 -584 -223 -594 -2 -2 -88 -26 -193
-54 -104 -27 -271 -72 -371 -98 -101 -27 -183 -48 -183 -47 0 3 202 525 225
582 19 48 8 44 235 102 85 23 229 61 320 85 91 24 171 45 178 45 6 1 12 -9 12
-21z"/>
<path d="M1559 5060 c-372 -42 -647 -241 -825 -601 -83 -165 -124 -321 -218
-819 -19 -102 -49 -257 -66 -345 -17 -88 -49 -254 -71 -370 -33 -175 -71 -375
-139 -720 -13 -68 -101 -528 -145 -760 -20 -104 -39 -200 -42 -212 l-5 -23
346 0 c190 0 346 1 346 3 0 2 11 62 25 133 14 71 32 163 40 204 13 72 57 298
165 860 28 146 75 391 105 545 29 154 61 322 71 373 l18 92 256 0 256 0 23
123 c39 210 61 321 66 345 l6 23 -261 -3 c-226 -3 -260 -1 -260 12 1 25 38
186 55 237 48 142 144 267 245 319 46 23 70 28 150 32 66 3 113 -1 155 -12 32
-8 60 -14 61 -13 1 1 28 90 59 197 31 107 65 224 76 259 11 36 16 68 11 73
-15 15 -205 46 -317 51 -60 3 -144 1 -186 -3z"/>
<path d="M9730 5060 c-111 -11 -244 -47 -338 -91 -204 -95 -372 -268 -491
-505 -83 -166 -115 -278 -185 -644 -25 -129 -70 -365 -101 -525 -31 -159 -67
-346 -80 -415 -13 -69 -44 -231 -69 -360 -44 -230 -94 -487 -196 -1018 -27
-145 -50 -270 -50 -278 0 -12 48 -14 343 -12 l342 3 27 140 c15 77 38 199 52
270 27 141 95 495 176 915 29 146 58 299 65 340 31 168 96 506 101 523 5 16
29 17 324 17 l319 0 5 -42 c4 -24 17 -146 31 -273 14 -126 29 -268 35 -315 22
-191 70 -617 90 -795 11 -104 27 -244 35 -310 45 -380 44 -403 -22 -513 -117
-190 -342 -389 -595 -527 -49 -26 -88 -48 -88 -49 0 -15 273 -556 281 -556 30
0 226 122 344 214 91 71 245 226 332 334 176 218 342 493 523 865 89 183 463
1067 930 2202 32 77 67 162 79 188 12 27 21 53 21 58 0 5 -142 9 -344 9 l-345
0 -95 -287 c-294 -893 -454 -1395 -503 -1588 l-18 -70 -8 500 c-4 275 -10 712
-15 970 l-7 470 -609 2 c-335 2 -610 4 -612 5 -5 6 35 184 55 241 55 159 167
295 274 335 69 26 190 29 280 8 43 -10 60 -11 62 -2 3 6 36 121 76 256 39 134
72 248 75 251 12 20 -177 55 -331 62 -55 3 -134 2 -175 -3z"/>
<path d="M8058 5010 c-198 -35 -337 -261 -308 -497 23 -178 119 -272 286 -281
186 -10 331 91 394 272 27 78 28 239 3 310 -24 65 -99 148 -160 174 -57 24
-150 34 -215 22z"/>
<path d="M6590 4550 c-179 -44 -333 -80 -342 -80 -9 0 -19 -4 -22 -9 -4 -5
-26 -112 -51 -238 -25 -125 -50 -248 -55 -273 l-11 -45 -154 3 c-154 3 -154 3
-160 -20 -16 -71 -85 -437 -85 -451 0 -15 18 -17 153 -19 l153 -3 -23 -120
c-12 -66 -43 -228 -67 -360 -25 -132 -72 -382 -105 -555 -82 -435 -85 -457
-85 -610 0 -98 5 -153 18 -199 58 -211 202 -342 426 -387 69 -14 116 -16 250
-11 144 6 313 26 327 40 5 6 83 473 83 499 0 15 -10 17 -98 11 -216 -13 -292
48 -292 236 0 87 14 180 80 526 32 171 84 443 115 605 31 162 58 303 61 313 5
16 33 17 410 17 222 0 404 -3 404 -7 0 -15 -19 -118 -50 -278 -17 -88 -49
-254 -71 -370 -22 -115 -66 -347 -99 -515 -101 -521 -161 -832 -176 -912 -7
-42 -16 -89 -20 -103 l-6 -25 345 0 346 0 10 53 c19 95 92 469 136 702 104
546 139 726 190 990 30 154 77 399 105 545 28 146 57 295 64 332 8 37 11 70 8
73 -3 3 -341 5 -751 5 l-746 0 3 22 c1 13 13 82 27 153 14 72 41 216 60 320
20 105 38 198 41 208 3 10 0 17 -8 16 -7 0 -159 -36 -338 -79z"/>
<path d="M2896 3934 c-304 -41 -548 -164 -771 -388 -314 -315 -507 -770 -560
-1325 -19 -195 -19 -290 0 -435 35 -269 146 -466 310 -553 292 -154 646 -19
891 342 32 47 62 85 67 85 6 0 7 -31 3 -77 -3 -43 -9 -144 -12 -225 l-7 -148
295 0 295 0 7 152 c13 294 40 582 77 799 10 64 89 467 174 895 117 591 152
780 142 786 -6 4 -43 17 -81 29 -229 69 -587 97 -830 63z m137 -510 c15 -3 27
-10 27 -16 0 -19 -171 -875 -196 -983 -55 -231 -147 -451 -239 -567 -114 -145
-278 -159 -348 -29 -39 71 -51 162 -44 351 7 212 32 346 109 580 126 386 313
628 518 669 42 9 110 7 173 -5z"/>
<path d="M4845 3935 c-304 -48 -557 -213 -692 -453 -81 -144 -124 -352 -104
-504 29 -224 115 -381 299 -545 155 -139 228 -218 258 -279 26 -53 29 -69 29
-159 0 -77 -5 -108 -19 -135 -25 -48 -83 -108 -127 -130 -116 -60 -333 -45
-507 35 -41 20 -79 32 -82 28 -9 -10 -160 -457 -160 -473 0 -19 122 -69 246
-101 278 -70 615 -42 853 72 290 138 447 368 481 706 17 165 -5 293 -76 438
-60 124 -153 237 -294 355 -188 159 -223 212 -224 346 0 71 3 86 31 135 54 97
142 144 288 156 86 7 214 -16 292 -52 31 -14 58 -23 60 -21 2 2 37 113 77 247
61 203 71 246 59 255 -28 23 -180 66 -282 80 -128 16 -297 16 -406 -1z"/>
</g>
</svg>
