<!DOCTYPE svg PUBLIC "-//W3C//DTD SVG 20010904//EN" "http://www.w3.org/TR/2001/REC-SVG-20010904/DTD/svg10.dtd"[]><svg version="1.0" xmlns="http://www.w3.org/2000/svg" width="60" height="40" viewBox="0 0 1024.000000 683.000000" preserveAspectRatio="xMidYMid meet"><g transform="translate(0.000000,683.000000) scale(0.100000,-0.100000)" fill="#000000" stroke="none"><path d="M0 3415 l0 -3415 5120 0 5120 0 0 3415 0 3415 -5120 0 -5120 0 0 -3415z m2347 1628 c49 -23 76 -61 142 -203 32 -69 82 -174 111 -235 29 -60 63 -135 77 -165 14 -30 46 -98 70 -150 58 -121 113 -240 145 -310 14 -30 55 -117 92 -192 36 -76 66 -140 66 -142 0 -2 31 -68 69 -147 64 -135 102 -215 181 -384 18 -38 66 -139 106 -224 41 -84 74 -155 74 -157 0 -1 25 -55 55 -119 59 -125 66 -168 41 -228 -16 -39 -51 -79 -85 -97 -23 -12 -81 -30 -401 -123 -30 -9 -91 -27 -135 -41 -44 -13 -134 -40 -200 -59 -66 -19 -280 -82 -475 -140 -629 -187 -600 -179 -657 -175 -86 7 -110 31 -249 248 -271 422 -436 678 -476 740 -40 61 -43 69 -43 135 l0 70 149 240 c143 231 162 262 218 350 14 22 36 58 49 80 25 44 117 193 354 575 147 237 285 461 393 640 25 41 48 77 51 80 3 3 15 21 25 40 42 78 88 108 169 109 27 1 65 -6 84 -16z m3828 -1073 c34 -13 58 -69 49 -115 -14 -79 -108 -118 -189 -80 -62 30 -77 125 -26 176 25 25 37 29 85 29 30 0 66 -4 81 -10z m-1380 -62 c159 -3 161 -3 227 -36 121 -59 170 -144 170 -297 1 -115 -21 -174 -92 -246 -74 -75 -142 -99 -302 -106 l-118 -6 0 -189 0 -189 -112 3 -113 3 -3 525 c-1 289 0 530 2 535 2 6 40 9 92 8 49 -2 161 -4 249 -5z m1071 -242 c3 -8 2 -56 -3 -107 l-8 -93 -70 -1 c-107 -3 -169 -38 -205 -117 -18 -39 -20 -66 -20 -275 l0 -233 -110 0 -110 0 0 410 0 410 84 0 c83 0 84 0 90 -27 19 -77 27 -103 34 -103 4 0 17 16 29 34 24 37 90 87 138 104 46 16 144 15 151 -2z m1025 -15 c103 -32 104 -33 69 -115 -16 -38 -33 -73 -38 -78 -5 -5 -22 -2 -38 6 -46 23 -143 46 -196 46 -35 0 -54 -6 -68 -20 -45 -45 -12 -79 135 -141 126 -53 190 -98 223 -159 20 -39 23 -55 19 -116 -7 -125 -66 -195 -193 -230 -81 -22 -305 -16 -376 11 l-48 17 0 94 c0 52 2 94 4 94 2 0 23 -9 47 -19 67 -30 209 -55 262 -47 54 8 92 45 81 80 -6 20 -51 65 -66 66 -4 0 -58 24 -120 54 -124 60 -169 95 -192 151 -20 46 -21 154 -2 199 22 53 105 106 196 127 58 13 230 1 301 -20z m853 0 c27 -12 64 -38 82 -58 l33 -37 33 36 c58 62 109 82 218 82 80 1 102 -3 142 -22 63 -31 114 -92 127 -151 5 -26 11 -184 12 -351 l2 -305 -111 -3 -111 -3 -3 283 c-3 274 -4 284 -26 320 -27 43 -38 48 -102 48 -72 0 -96 -15 -128 -79 l-27 -56 -3 -255 -2 -255 -109 -3 -109 -3 -4 284 -3 284 -27 40 c-21 32 -34 41 -65 46 -48 8 -80 0 -119 -29 -58 -43 -66 -88 -72 -371 l-4 -253 -109 0 -109 0 0 410 0 411 86 -3 87 -3 14 -47 c7 -27 15 -48 17 -48 1 0 23 19 47 43 26 25 66 50 94 60 68 23 183 18 249 -12z m1347 4 c58 -20 114 -67 138 -113 34 -69 41 -136 41 -422 l0 -280 -80 0 -81 0 -20 47 c-11 26 -22 49 -24 52 -2 2 -25 -15 -50 -37 -61 -53 -118 -72 -222 -72 -91 0 -130 12 -180 54 -101 85 -108 282 -13 374 60 58 145 82 308 89 l132 6 0 43 c0 34 -6 51 -29 76 -29 33 -31 33 -113 32 -56 -1 -102 -9 -142 -23 -33 -12 -63 -21 -67 -21 -5 0 -24 31 -44 69 -26 53 -31 72 -22 79 21 17 116 52 170 62 73 13 243 5 298 -15z m-2881 -405 l0 -410 -110 0 -110 0 0 410 0 410 110 0 110 0 0 -410z" /><path d="M2302 4633 c-20 -18 -30 -59 -157 -683 -42 -206 -67 -324 -151 -720 -36 -173 -72 -346 -79 -385 -8 -38 -28 -135 -45 -215 -17 -80 -42 -199 -56 -265 -74 -351 -73 -343 -30 -363 25 -11 69 -2 291 66 55 16 165 49 245 72 80 23 204 60 275 81 188 58 205 63 365 109 80 23 177 53 217 66 40 12 88 26 107 29 19 4 44 17 56 30 38 40 42 29 -122 375 -22 47 -61 128 -85 180 -25 52 -65 137 -89 188 -24 51 -44 94 -44 96 0 2 -31 68 -69 147 -138 288 -191 401 -191 404 0 1 -26 58 -59 126 -32 68 -71 151 -86 184 -15 33 -59 125 -98 205 -38 80 -76 163 -85 185 -19 51 -59 105 -76 105 -8 0 -23 -8 -34 -17z" /><path d="M4684 3717 c-2 -7 -3 -78 -2 -157 l3 -145 80 1 c140 2 195 46 195 157 0 58 -3 67 -32 101 -28 31 -42 38 -93 46 -85 14 -145 13 -151 -3z" /><path d="M8915 3215 c-5 -2 -27 -6 -47 -10 -22 -3 -50 -18 -68 -36 -25 -26 -30 -38 -30 -79 0 -59 22 -88 72 -97 58 -9 103 5 149 46 42 37 43 40 47 109 l4 72 -58 -1 c-33 0 -63 -2 -69 -4z" /></g></svg>