<?xml version="1.0" standalone="no"?>
<!DOCTYPE svg PUBLIC "-//W3C//DTD SVG 20010904//EN"
 "http://www.w3.org/TR/2001/REC-SVG-20010904/DTD/svg10.dtd">
<svg version="1.0" xmlns="http://www.w3.org/2000/svg"
 width="1220.000000pt" height="884.000000pt" viewBox="0 0 1220.000000 884.000000"
 preserveAspectRatio="xMidYMid meet">

<g transform="translate(0.000000,884.000000) scale(0.100000,-0.100000)"
fill="#000000" stroke="none">
<path d="M8060 7074 c-302 -176 -724 -349 -996 -408 -231 -50 -366 -51 -833
-7 -360 35 -557 27 -866 -33 -164 -33 -485 -124 -619 -176 -271 -106 -548
-310 -765 -565 -118 -137 -183 -228 -363 -500 -170 -257 -229 -329 -333 -405
-344 -251 -1112 -827 -1120 -840 -3 -5 -4 -10 -1 -10 4 0 683 214 759 240 15
5 27 7 27 4 0 -2 -35 -41 -77 -87 -108 -115 -258 -298 -445 -540 l-160 -208
43 -57 c111 -150 317 -322 446 -373 89 -36 216 -33 301 5 l62 29 108 -50 c147
-69 352 -133 428 -133 23 0 21 3 -26 62 -27 34 -86 113 -131 175 -87 123 -88
125 -27 157 l33 18 149 -56 c83 -30 151 -54 152 -53 0 1 -7 65 -16 142 -9 77
-16 141 -16 142 1 1 60 -20 131 -46 72 -26 139 -51 151 -55 l21 -6 -18 122
c-10 68 -19 126 -19 130 0 4 26 21 58 37 l57 29 155 587 c85 322 157 590 160
594 7 12 1283 882 1287 878 5 -6 -108 -280 -154 -372 -135 -271 -335 -485
-578 -620 -33 -18 -121 -57 -195 -85 -130 -49 -137 -53 -180 -107 -126 -156
-168 -277 -205 -598 -21 -178 -20 -179 9 -171 14 3 64 10 113 15 212 22 401
-55 583 -239 112 -113 178 -217 229 -365 32 -92 35 -109 36 -221 0 -117 -1
-122 -30 -169 -17 -27 -77 -89 -137 -142 l-108 -93 -115 0 -114 0 -3 -97 -3
-98 -121 -3 c-141 -3 -134 3 -134 -115 0 -62 -3 -70 -27 -92 -34 -30 -56 -30
-155 -5 -91 23 -187 63 -283 118 l-70 40 -3 -30 c-5 -46 43 -200 96 -307 53
-108 51 -106 254 -208 207 -103 383 -153 536 -153 184 0 243 29 787 382 563
364 823 519 1113 661 l164 81 1091 286 1092 287 142 369 c78 202 141 370 139
371 -2 2 -370 -94 -818 -212 -449 -118 -821 -215 -827 -215 -8 0 -11 93 -9
332 l3 331 967 256 c532 141 971 261 976 266 13 14 286 724 281 730 -3 2 -504
-128 -1114 -289 l-1110 -293 -3 330 c-1 182 0 332 2 334 2 3 557 150 1233 328
675 179 1242 328 1258 332 29 8 35 22 162 348 128 330 143 378 124 389 -5 4
-600 -149 -1321 -340 -722 -190 -1313 -344 -1315 -342 -1 2 20 41 46 88 101
174 142 325 137 505 -4 136 -5 137 -138 59z m-1170 -2196 c-45 -117 -85 -216
-89 -220 -7 -8 -524 -148 -529 -144 -3 3 163 434 170 441 6 6 523 143 527 139
2 -2 -34 -99 -79 -216z m579 -270 c-12 -29 -48 -122 -80 -206 -32 -84 -63
-161 -68 -171 -7 -13 -78 -36 -266 -86 -140 -37 -258 -65 -262 -62 -3 4 32
104 78 224 l84 216 255 68 c140 37 261 68 267 68 9 1 6 -15 -8 -51z m-703
-160 c-13 -35 -51 -135 -86 -223 l-61 -161 -260 -68 c-143 -38 -262 -66 -265
-63 -5 5 151 423 163 436 4 5 501 138 520 140 9 1 5 -18 -11 -61z"/>
<path d="M3048 3 c1678 -2 4426 -2 6105 0 1678 1 305 2 -3053 2 -3358 0 -4731
-1 -3052 -2z"/>
</g>
</svg>
